# xmcd
#
# Track frame offsets:
# 150
# 18802
# 37402
# 62502
# 83112
# 105954
# 122502
# 141722
# 157915
# 177147
# 193417
# 214790
# 227350
# 249930
#
# Disc length: 3536 seconds
#
#
# Revision: 5
# Processed by: cddbd v1.5.1PL2 Copyright (c) Steve Scherf et al.
# Submitted via: FreeRIP 2.60 
#
DISCID=b40dce0e
DTITLE=Zeze di Camargo and Luciano - (null)
DYEAR=1900
DGENRE=country
TTITLE0=Indiferenca
TTITLE1=Seus olhos
TTITLE2=Preciso ser amado
TTITLE3=Quando a gente ama de mais
TTITLE4=Nao tenha duvida
TTITLE5=E Deus por nos
TTITLE6=Refem de mim
TTITLE7=Saudade dos Beatles
TTITLE8=Outra vez por amor
TTITLE9=Brigue comigo, mas nao va
TTITLE10=Vivendo por viver
TTITLE11=Menina
TTITLE12=Sorriso bonito
TTITLE13=200 anos
EXTD=
EXTT0=
EXTT1=
EXTT2=
EXTT3=
EXTT4=
EXTT5=
EXTT6=
EXTT7=
EXTT8=
EXTT9=
EXTT10=
EXTT11=
EXTT12=
EXTT13=
PLAYORDER=
